<?xml version="1.0" encoding="UTF-8" standalone="no"?>
<svg
   xmlns:dc="http://purl.org/dc/elements/1.1/"
   xmlns:cc="http://creativecommons.org/ns#"
   xmlns:rdf="http://www.w3.org/1999/02/22-rdf-syntax-ns#"
   xmlns:svg="http://www.w3.org/2000/svg"
   xmlns="http://www.w3.org/2000/svg"
   id="svg1786"
   version="1.1"
   viewBox="0 0 26.458333 39.6875"
   height="150"
   width="100">
  <defs
     id="defs1780" />
  <metadata
     id="metadata1783">
    <rdf:RDF>
      <cc:Work
         rdf:about="">
        <dc:format>image/svg+xml</dc:format>
        <dc:type
           rdf:resource="http://purl.org/dc/dcmitype/StillImage" />
        <dc:title></dc:title>
      </cc:Work>
    </rdf:RDF>
  </metadata>
  <g
     transform="translate(-61.488369,-51.754445)"
     id="layer1">
    <g
       transform="translate(-39.720531,-59.531355)"
       id="g840">
      <path
         style="color:#000000;font-style:normal;font-variant:normal;font-weight:normal;font-stretch:normal;font-size:medium;line-height:normal;font-family:sans-serif;font-variant-ligatures:normal;font-variant-position:normal;font-variant-caps:normal;font-variant-numeric:normal;font-variant-alternates:normal;font-variant-east-asian:normal;font-feature-settings:normal;font-variation-settings:normal;text-indent:0;text-align:start;text-decoration:none;text-decoration-line:none;text-decoration-style:solid;text-decoration-color:#000000;letter-spacing:normal;word-spacing:normal;text-transform:none;writing-mode:lr-tb;direction:ltr;text-orientation:mixed;dominant-baseline:auto;baseline-shift:baseline;text-anchor:start;white-space:normal;shape-padding:0;shape-margin:0;inline-size:0;clip-rule:nonzero;display:inline;overflow:visible;visibility:visible;isolation:auto;mix-blend-mode:normal;color-interpolation:sRGB;color-interpolation-filters:linearRGB;solid-color:#000000;solid-opacity:1;vector-effect:none;fill:#4eef85;fill-opacity:1;fill-rule:nonzero;stroke:none;stroke-width:1.95064;stroke-linecap:butt;stroke-linejoin:miter;stroke-miterlimit:4;stroke-dasharray:none;stroke-dashoffset:0;stroke-opacity:1;color-rendering:auto;image-rendering:auto;shape-rendering:auto;text-rendering:auto;enable-background:accumulate;stop-color:#000000"
         d="m 122.38817,114.55351 c 0.0122,2.44784 0.14245,4.95469 0,7.3252 l 0.0327,0.0566 c 0.81055,1.40413 1.62109,2.80827 2.43164,4.2124 l 0.45508,0.78809 v -7.3252 l -0.0327,-0.0566 c -0.81054,-1.40413 -1.62109,-2.80827 -2.43164,-4.2124 z"
         id="path1037" />
      <path
         style="color:#000000;font-style:normal;font-variant:normal;font-weight:normal;font-stretch:normal;font-size:medium;line-height:normal;font-family:sans-serif;font-variant-ligatures:normal;font-variant-position:normal;font-variant-caps:normal;font-variant-numeric:normal;font-variant-alternates:normal;font-variant-east-asian:normal;font-feature-settings:normal;font-variation-settings:normal;text-indent:0;text-align:start;text-decoration:none;text-decoration-line:none;text-decoration-style:solid;text-decoration-color:#000000;letter-spacing:normal;word-spacing:normal;text-transform:none;writing-mode:lr-tb;direction:ltr;text-orientation:mixed;dominant-baseline:auto;baseline-shift:baseline;text-anchor:start;white-space:normal;shape-padding:0;shape-margin:0;inline-size:0;clip-rule:nonzero;display:inline;overflow:visible;visibility:visible;isolation:auto;mix-blend-mode:normal;color-interpolation:sRGB;color-interpolation-filters:linearRGB;solid-color:#000000;solid-opacity:1;vector-effect:none;fill:#4eef85;fill-opacity:1;fill-rule:nonzero;stroke:none;stroke-width:1.95064;stroke-linecap:butt;stroke-linejoin:miter;stroke-miterlimit:4;stroke-dasharray:none;stroke-dashoffset:0;stroke-opacity:1;color-rendering:auto;image-rendering:auto;shape-rendering:auto;text-rendering:auto;enable-background:accumulate;stop-color:#000000"
         d="m 122.37239,124.55254 v 0.91015 c 0,2.44385 0,4.8877 0,7.33154 v 0.001 0.001 c 0,0.0463 2.5e-4,0.0246 0.003,0.0224 0.003,-0.002 -0.0214,0.0116 -0.0708,0.0127 -3.6207,0.2721 -7.52567,0.01 -11.23526,0.01 h -0.006 -0.006 c -0.16607,0.009 -0.3357,0.071 -0.43945,0.20215 -0.10374,0.13116 -0.12695,0.28665 -0.12695,0.4414 0.13463,3.0291 0.024,6.58747 5e-4,9.61657 -2.06031,0.0314 -4.47958,0.20433 -6.38275,0 l 0.21094,0.36524 c 0.88037,1.52783 2.1713,2.88391 2.64111,4.58349 l 0.0703,0.12208 h 6.36419 l 5e-4,-0.24317 c -0.0161,-3.16775 -0.12655,-6.91206 0.0142,-10.00133 3.50394,0.19109 7.69976,0.14541 11.63808,-0.0112 h 0.24365 c 0.0365,-2.65958 0.0501,-5.38797 0,-8.30762 l -0.0327,-0.0566 c -0.82486,-1.42815 -1.74826,-2.76512 -2.43116,-4.21142 z"
         id="path1043" />
      <path
         style="color:#000000;font-style:normal;font-variant:normal;font-weight:normal;font-stretch:normal;font-size:medium;line-height:normal;font-family:sans-serif;font-variant-ligatures:normal;font-variant-position:normal;font-variant-caps:normal;font-variant-numeric:normal;font-variant-alternates:normal;font-variant-east-asian:normal;font-feature-settings:normal;font-variation-settings:normal;text-indent:0;text-align:start;text-decoration:none;text-decoration-line:none;text-decoration-style:solid;text-decoration-color:#000000;letter-spacing:normal;word-spacing:normal;text-transform:none;writing-mode:lr-tb;direction:ltr;text-orientation:mixed;dominant-baseline:auto;baseline-shift:baseline;text-anchor:start;white-space:normal;shape-padding:0;shape-margin:0;inline-size:0;clip-rule:nonzero;display:inline;overflow:visible;visibility:visible;isolation:auto;mix-blend-mode:normal;color-interpolation:sRGB;color-interpolation-filters:linearRGB;solid-color:#000000;solid-opacity:1;vector-effect:none;fill:#4eef85;fill-opacity:1;fill-rule:nonzero;stroke:none;stroke-width:1.95517;stroke-linecap:butt;stroke-linejoin:miter;stroke-miterlimit:4;stroke-dasharray:none;stroke-dashoffset:0;stroke-opacity:1;color-rendering:auto;image-rendering:auto;shape-rendering:auto;text-rendering:auto;enable-background:accumulate;stop-color:#000000"
         d="m 123.05098,126.68586 c 0.643,1.12673 1.16654,2.05727 1.80953,3.184 l -0.0864,7.52587 c -3.76429,-0.0226 -7.86768,-0.16026 -11.63193,-0.18313 l -0.29051,0.13689 -0.0947,0.30092 c -0.0264,3.15724 0.0273,6.76283 5e-4,9.92013 l -5.48167,0.055 c -0.78088,-1.37088 -1.22708,-2.60543 -2.00797,-3.97632 l 5.77617,0.0404 0.002,-0.24365 c 0.0215,-2.92167 0.0677,-6.53733 0.0892,-9.64759 5e-4,-0.13015 0.26516,-0.3151 0.34201,-0.31892 3.71323,0.0231 7.31416,-0.008 11.01718,0.0177 l 0.002,2e-5 0.003,-5e-4 c 0.11701,-0.002 0.24747,-0.0247 0.36332,-0.11417 0.11585,-0.0894 0.0487,-0.284 0.0487,-0.44303 0.0149,-2.13976 -0.0373,-3.92911 -0.0224,-6.06887 z"
         id="path1045" />
      <path
         style="color:#000000;font-style:normal;font-variant:normal;font-weight:normal;font-stretch:normal;font-size:medium;line-height:normal;font-family:sans-serif;font-variant-ligatures:normal;font-variant-position:normal;font-variant-caps:normal;font-variant-numeric:normal;font-variant-alternates:normal;font-variant-east-asian:normal;font-feature-settings:normal;font-variation-settings:normal;text-indent:0;text-align:start;text-decoration:none;text-decoration-line:none;text-decoration-style:solid;text-decoration-color:#000000;letter-spacing:normal;word-spacing:normal;text-transform:none;writing-mode:lr-tb;direction:ltr;text-orientation:mixed;dominant-baseline:auto;baseline-shift:baseline;text-anchor:start;white-space:normal;shape-padding:0;shape-margin:0;inline-size:0;clip-rule:nonzero;display:inline;overflow:visible;visibility:visible;isolation:auto;mix-blend-mode:normal;color-interpolation:sRGB;color-interpolation-filters:linearRGB;solid-color:#000000;solid-opacity:1;vector-effect:none;fill:#4eef85;fill-opacity:1;fill-rule:nonzero;stroke:none;stroke-width:1.95517;stroke-linecap:butt;stroke-linejoin:miter;stroke-miterlimit:4;stroke-dasharray:none;stroke-dashoffset:0;stroke-opacity:1;color-rendering:auto;image-rendering:auto;shape-rendering:auto;text-rendering:auto;enable-background:accumulate;stop-color:#000000"
         d="m 122.96276,116.39058 c 0.64308,1.12693 1.11889,2.13745 1.76198,3.26438 -0.0125,1.79114 0.18901,3.52877 -0.0375,5.37341 -0.64308,-1.12693 -1.142,-2.07094 -1.78509,-3.19786 0.0356,-1.77958 -0.15052,-5.33032 0.0606,-5.43993 z"
         id="path1041" />
      <path
         id="path1004"
         style="display:inline;fill:#ffffff;fill-opacity:1;fill-rule:evenodd;stroke:none;stroke-width:5.50182;stroke-linecap:round;stroke-linejoin:miter;stroke-miterlimit:4;stroke-dasharray:none;stroke-dashoffset:0;stroke-opacity:1"
         d="m 116.66492,131.80571 c -0.01,0.001 -0.015,0.002 -0.02,0.005 l 0.0501,-0.003 c -0.01,-10e-4 -0.0151,-10e-4 -0.0251,-10e-4 z m 1.99434,-1.8299 c -0.003,-0.01 -0.005,-0.0151 -0.01,-0.02 l 0.01,0.0451 z m 2.37198,1.07173 c 0,0.003 0.001,0.005 0.003,0.01 l -0.003,-0.0301 c 0,0.01 0.001,0.0151 0.003,0.02 z M 108.8832,124.7301 c 0.003,0.01 0.003,0.0201 0.005,0.0301 l -0.003,-0.0501 v 0.02 z m 1.97347,7.01023 c 0,0 -0.003,-5e-5 -0.003,0 l 0.0151,0.001 c -0.003,0 -0.01,0 -0.0151,-0.001 z m 4.10194,-1.12793 c 0.001,0.01 0.003,0.02 0.005,0.0301 l -0.005,-0.0502 z m -2.6955,-1.84659 c -0.01,0 -0.0151,-10e-5 -0.02,0 l 0.0451,0.005 c -0.01,-0.002 -0.0151,-0.003 -0.02,-0.005 z m 2.27526,-4.91466 c -0.0401,-0.001 -0.0852,-0.001 -0.13036,0 h -0.005 c -0.20305,0.01 -0.42366,0.0301 -0.63874,0.01 v 0 c -1.33991,0.02 -2.68824,-0.0301 -4.00794,0.0251 -0.0682,1.37501 -0.01,2.77934 -0.0301,4.1762 v 0.003 c 0.0151,1.21166 -0.0301,2.43134 0.0251,3.62224 0.13086,0.0451 0.28277,0.0677 0.46426,0.0602 0.20456,-0.01 0.42667,-0.0351 0.64276,-0.01 1.35404,-0.0151 2.71656,0.0301 4.05095,-0.0251 0.0451,-0.13085 0.0687,-0.28277 0.0612,-0.46426 -0.01,-0.20256 -0.0351,-0.42266 -0.01,-0.63684 -0.0451,-0.20757 0.0151,-0.4392 0.0201,-0.6219 0.001,-0.0958 -0.01,-0.17046 -0.0301,-0.20205 -0.02,-0.0301 -0.0301,-0.0451 -0.12334,-0.0451 h -3.16373 v -0.12383 c -0.003,-0.19153 -0.0401,-0.42065 0.0151,-0.62015 0.0301,-0.0998 0.0978,-0.20205 0.21008,-0.24517 0.10628,-0.0401 0.22962,-0.0301 0.37853,0.0151 0.55501,-0.0251 1.10602,0.0351 1.6106,-0.0401 0.0451,-0.60234 0.0401,-1.23397 0.005,-1.83962 -0.13086,-0.0451 -0.28227,-0.0677 -0.46326,-0.0602 -0.20857,0.01 -0.43569,0.0351 -0.65584,0.01 l -0.01,-10e-4 -0.01,-0.003 c -0.0451,-0.0151 -0.1434,-0.0151 -0.25369,-0.005 -0.10981,0.01 -0.23314,0.0251 -0.35196,0.0301 -0.11833,0.005 -0.23615,0.003 -0.34194,-0.0642 -0.0531,-0.0351 -0.0988,-0.0892 -0.12033,-0.15442 -0.0201,-0.0652 -0.0201,-0.13688 -0.01,-0.21408 -0.0301,-0.13237 -0.0501,-0.2537 -0.0201,-0.35297 0.0351,-0.11532 0.12334,-0.20055 0.22161,-0.24266 0.19654,-0.0842 0.43017,-0.0557 0.66141,-0.0351 0.79306,-0.0301 1.59093,0.0401 2.34148,-0.0451 0.0451,-0.60144 0.0401,-1.23171 0.005,-1.83661 -0.0978,-0.0351 -0.20807,-0.0567 -0.33291,-0.0617 z m 0.91183,-0.0401 c -10e-4,0.0251 -10e-4,0.0541 -0.003,0.0807 l 0.0151,0.0151 -0.01,-0.0938 z m 2.53327,2.04924 c 0.25119,-0.005 0.78775,-0.0677 1.01692,0.0687 0.26171,0.15542 0.20205,0.56113 0.1459,0.91856 v 0.01 l -0.003,0.01 c -0.11331,0.32288 -0.38154,0.49585 -0.66326,0.57291 -0.28177,0.0772 -0.5859,0.0732 -0.83021,0.0612 l -0.11933,-0.005 v -1.6315 h 0.34895 c 0.0351,-0.003 0.0697,-0.005 0.10579,-0.005 z m -1.78517,-1.92395 c -0.21308,0.001 -0.42366,0.005 -0.63403,0.0151 -0.0702,1.28706 -0.01,2.60581 -0.0351,3.91644 v 0.005 c 0.0151,1.30085 -0.0301,2.60867 0.0301,3.88942 0.13086,0.0451 0.28178,0.0687 0.46327,0.0612 0.20205,-0.01 0.42064,-0.0351 0.63403,-0.01 0.20806,-0.0451 0.4417,0.0151 0.62545,0.02 0.0958,0.002 0.17047,-0.01 0.20205,-0.0301 0.0301,-0.02 0.0451,-0.0301 0.0451,-0.12233 v -0.003 -2.19775 l 0.14791,0.0251 c 0.0892,0.0151 0.22762,-0.005 0.36951,-0.0251 0.14138,-0.02 0.2948,-0.0451 0.43368,0.0451 l 0.0351,0.0251 0.0151,0.0401 c 0.25169,0.72407 0.4031,1.48355 0.69655,2.14661 0.66357,-0.001 1.32989,0.0612 1.95323,-0.0451 0.01,-0.0151 0.0251,-0.0251 0.0251,-0.0451 0.001,-0.0301 -0.01,-0.0812 -0.0301,-0.14089 -0.0451,-0.1128 -0.12535,-0.24467 -0.13788,-0.4051 -0.24266,-0.7867 -0.48432,-1.57285 -0.72503,-2.35984 0.51114,-0.55176 1.00234,-1.33149 1.0065,-2.11387 0.01,-1.39015 -0.13387,-2.62988 -0.6397,-2.62993 -0.35346,-5e-5 -1.0994,-0.0151 -2.03144,-0.0151 -0.16545,-0.02 -0.33291,-0.0251 -0.50037,-0.0151 l -0.003,10e-4 h -0.003 c -0.64771,-10e-4 -1.29814,-0.0301 -1.93758,-0.0301 z m -12.64149,10.09852 v 1.25142 l -0.005,-0.001 c 0.01,1.91187 -0.0201,4.46213 0.0632,6.24424 0.13086,0.0451 0.28277,0.0677 0.46427,0.0602 0.20155,-0.01 0.42015,-0.0301 0.63348,-0.01 0.20807,-0.0451 0.4412,0.0151 0.62511,0.0151 0.0958,0.002 0.17046,-0.01 0.20204,-0.0301 0.0301,-0.02 0.0451,-0.0301 0.0451,-0.12234 v -0.002 -2.33131 h 1.58538 v 0.12535 c 0.01,0.74588 0.01,1.6163 0.0401,2.29285 0.13136,0.0451 0.28328,0.0677 0.46527,0.0602 0.20206,-0.01 0.42065,-0.0301 0.63434,-0.01 0.20806,-0.0451 0.4417,0.0151 0.6255,0.0151 0.0958,0.002 0.16996,-0.01 0.20205,-0.0301 0.0301,-0.02 0.0451,-0.0301 0.0451,-0.12234 v -0.002 -0.002 c 0.003,-1.93302 0.01,-5.4634 0.01,-7.4046 0,-0.82936 -5.63257,-0.93275 -5.63257,-0.002 z m 3.52848,1.5363 c 0.2201,0.46527 0.11731,1.15786 0.11882,1.55278 h -1.68264 c -0.10078,-0.64521 -0.1464,-1.14382 0.25971,-1.61355 0.48381,-0.12434 0.94016,-0.01 1.30365,0.0607 z m 1.22363,6.00914 c -0.01,0.003 -0.0201,0.003 -0.0251,0.005 l 0.0501,-0.003 c -0.01,-0.001 -0.015,0 -0.02,-0.001 z m -3.59611,0 c -0.01,0.003 -0.015,0.003 -0.0251,0.005 l 0.0501,-0.003 c -0.01,-0.001 -0.015,0 -0.0201,-0.001 z m 1.32266,-15.7586 c 0.25119,-0.005 0.78775,-0.0677 1.01693,0.0682 0.26171,0.15593 0.20204,0.56118 0.14589,0.91861 v 0.01 l -0.003,0.01 c -0.11331,0.32288 -0.38155,0.49585 -0.66326,0.57286 -0.28177,0.0772 -0.5859,0.0732 -0.83022,0.0612 l -0.11933,-0.005 v -1.6315 h 0.34895 c 0.0351,-0.003 0.0697,-0.005 0.1058,-0.005 z m -1.78517,-1.924 c -0.21308,0.002 -0.42416,0.005 -0.63403,0.0151 -0.0702,1.28706 -0.01,2.60581 -0.0351,3.91644 v 0.005 c 0.015,1.30085 -0.0301,2.60867 0.0301,3.88941 0.13086,0.0451 0.28178,0.0687 0.46327,0.0612 0.20205,-0.01 0.42065,-0.0351 0.63403,-0.01 0.20806,-0.0451 0.4417,0.0151 0.62551,0.02 0.0963,0.002 0.17046,-0.01 0.20204,-0.0301 0.0301,-0.02 0.0451,-0.0301 0.0451,-0.12234 v -0.003 -2.19774 l 0.14791,0.0251 c 0.0892,0.0151 0.22762,-0.005 0.36951,-0.0251 0.14138,-0.02 0.2948,-0.0451 0.43368,0.0451 l 0.0351,0.0251 0.015,0.0401 c 0.25169,0.72408 0.4031,1.48355 0.69655,2.14661 0.66356,-0.001 1.13381,0.0612 1.75716,-0.0451 0.01,-0.0151 0.0251,-0.0251 0.0251,-0.0451 0.001,-0.0301 -0.01,-0.0812 -0.0301,-0.14088 -0.0451,-0.11281 -0.12535,-0.24467 -0.13788,-0.40511 -0.24266,-0.78669 -0.48432,-1.57284 -0.72503,-2.35984 0.51114,-0.55175 1.00234,-1.33148 1.0065,-2.11387 0.01,-1.39013 -0.13387,-2.62987 -0.63975,-2.62992 -0.35346,-5e-5 -0.90322,-0.0151 -1.83532,-0.0151 -0.16545,-0.02 -0.33291,-0.0251 -0.50037,-0.0151 l -0.003,10e-4 h -0.003 c -0.64772,-10e-4 -1.29814,-0.0301 -1.93758,-0.0301 z m 8.07879,4.89191 c -0.01,0 -0.015,-1e-4 -0.02,0 l 0.0451,0.005 c -0.01,-0.002 -0.0151,-0.003 -0.0251,-0.005 z m -0.6049,-2.378 c 0.003,0.01 0.003,0.02 0.01,0.0301 l -0.003,-0.0587 c -9.9e-4,0.01 0,0.02 -9.9e-4,0.0301 z m 4.94073,-4.33011 c -0.01,10e-4 -0.015,0.003 -0.02,0.005 l 0.0501,-0.003 c -0.01,-0.001 -0.0151,-0.001 -0.0251,-0.001 z m 1.99434,-1.82989 c -0.003,-0.01 -0.005,-0.015 -0.01,-0.0201 l 0.01,0.0451 z m 2.37198,1.07172 c 0,0.003 0.001,0.005 0.003,0.01 l -0.003,-0.0301 c 0,0.01 0.001,0.015 0.003,0.0201 z m -16.32741,0.69224 c -0.01,0.001 -0.015,0.003 -0.02,0.005 l 0.0501,-0.003 c -0.01,-0.001 -0.015,-0.001 -0.0251,-0.001 z m 3.58499,-4.05932 c 0,0.003 0,0.01 0.001,0.01 v -0.0401 c 0,0.01 0,0.015 -0.001,0.0251 z m -2.10504,-1.82188 c -0.01,10e-5 -0.0151,-1e-4 -0.0201,0 l 0.0401,0.005 c -0.01,-0.003 -0.015,-0.003 -0.02,-0.005 z m 2.89549,-1.12848 c 0.003,0.01 0.003,0.0201 0.005,0.0301 l -0.003,-0.0501 v 0.02 z m -2.8056,-0.87142 c -0.88993,-0.003 -1.77735,0 -2.6579,0.0301 -0.0682,1.37471 -0.01,2.77859 -0.0351,4.17514 v 0.005 c 0.0151,1.21171 -0.0301,2.43108 0.0251,3.62194 0.13085,0.0451 0.28277,0.0677 0.46376,0.0602 0.20105,-0.01 0.41764,-0.0301 0.62967,-0.01 0.20907,-0.0502 0.44471,0.015 0.62931,0.015 0.0963,0.003 0.17047,-0.01 0.20206,-0.0301 0.0301,-0.02 0.0451,-0.0301 0.0451,-0.12333 v -0.001 -2.76726 l 0.12334,-0.003 c 0.85157,-0.0201 1.70826,0.0251 2.53466,-0.0251 0.0451,-0.13688 0.0682,-0.29431 0.0612,-0.48082 -0.01,-0.20556 -0.0301,-0.42817 -0.01,-0.64496 -0.0351,-0.20104 0.0201,-0.43569 0.01,-0.60399 -0.003,-0.0857 -0.0251,-0.14189 -0.0401,-0.16094 -0.015,-0.0201 -0.0451,-0.0351 -0.15241,-0.0151 l -0.01,0.003 h -2.51802 v -0.12835 c 0.003,-0.18901 -0.0401,-0.43418 0.01,-0.64656 0.0251,-0.10629 0.0852,-0.21709 0.19904,-0.27024 0.1093,-0.0506 0.24066,-0.0451 0.39909,0.003 0.95435,-0.015 1.91372,0.0251 2.84466,-0.0251 0.0451,-0.13086 0.0687,-0.28277 0.0607,-0.46427 -0.01,-0.20306 -0.0351,-0.42316 -0.01,-0.63769 -0.0451,-0.20757 0.015,-0.4397 0.0201,-0.6224 0.003,-0.0958 -0.01,-0.16896 -0.0301,-0.20105 -0.0201,-0.0301 -0.0301,-0.0501 -0.12133,-0.0451 v 0 c -0.88917,0.01 -1.78106,10e-4 -2.67069,-0.001 z m 4.583,7.88165 c 0,0 -0.003,-5e-5 -0.003,0 l 0.0151,0.001 c -0.003,0 -0.01,0 -0.0151,-0.001 z m 4.10194,-1.12793 c 0.001,0.01 0.003,0.0201 0.005,0.0301 l -0.005,-0.0501 z m -2.6955,-1.84658 c -0.01,0 -0.0151,-1e-4 -0.02,0 l 0.0451,0.005 c -0.01,-0.003 -0.0151,-0.003 -0.02,-0.005 z m 2.27526,-4.91467 c -0.0401,-0.001 -0.0852,-0.001 -0.13036,0 h -0.005 c -0.20305,0.01 -0.42366,0.0301 -0.63874,0.01 v 0 c -1.33991,0.0201 -2.68824,-0.0301 -4.00794,0.0251 -0.0682,1.375 -0.01,2.77933 -0.0301,4.17619 v 0.003 c 0.0151,1.21166 -0.0301,2.43133 0.0251,3.62224 0.13086,0.0451 0.28277,0.0677 0.46426,0.0602 0.20456,-0.01 0.42667,-0.0351 0.64276,-0.01 1.35404,-0.015 2.71656,0.0301 4.05095,-0.0251 0.0451,-0.13086 0.0687,-0.28277 0.0612,-0.46427 -0.01,-0.20255 -0.0351,-0.42265 -0.01,-0.63684 -0.0451,-0.20756 0.0151,-0.4392 0.0201,-0.62189 0.001,-0.0958 -0.01,-0.17047 -0.0301,-0.20205 -0.02,-0.0301 -0.0301,-0.0451 -0.12334,-0.0451 h -3.16373 v -0.12384 c -0.003,-0.19152 -0.0401,-0.42065 0.0151,-0.62014 0.0301,-0.0998 0.0978,-0.20205 0.21008,-0.24517 0.10628,-0.0401 0.22962,-0.0301 0.37853,0.015 0.55501,-0.0251 1.10602,0.0351 1.6106,-0.0401 0.0451,-0.60234 0.0401,-1.23396 0.005,-1.83961 -0.13086,-0.0451 -0.28227,-0.0677 -0.46326,-0.0602 -0.20857,0.01 -0.43569,0.0351 -0.65584,0.01 l -0.01,-0.001 -0.01,-0.003 c -0.0451,-0.015 -0.1434,-0.015 -0.25369,-0.005 -0.10981,0.01 -0.23314,0.0251 -0.35196,0.0301 -0.11833,0.005 -0.23615,0.003 -0.34194,-0.0642 -0.0531,-0.0351 -0.0988,-0.0892 -0.12033,-0.15441 -0.0201,-0.0652 -0.0201,-0.13688 -0.01,-0.21409 -0.0301,-0.13236 -0.0501,-0.25369 -0.0201,-0.35296 0.0351,-0.11532 0.12334,-0.20055 0.22161,-0.24266 0.19654,-0.0842 0.43017,-0.0557 0.66141,-0.0351 0.79306,-0.0301 1.59093,0.0401 2.34148,-0.0451 0.0451,-0.60144 0.0401,-1.23171 0.005,-1.83661 -0.0978,-0.0351 -0.20807,-0.0567 -0.33291,-0.0617 z m 0.91183,-0.0401 c -9.9e-4,0.0251 -9.9e-4,0.0542 -0.003,0.0807 l 0.0151,0.015 -0.01,-0.0938 z m 2.53327,2.04924 c 0.25119,-0.005 0.78775,-0.0677 1.01692,0.0687 0.26171,0.15542 0.20205,0.56113 0.1459,0.91855 v 0.01 l -0.003,0.01 c -0.11331,0.32288 -0.38154,0.49586 -0.66326,0.57292 -0.28177,0.0772 -0.5859,0.0732 -0.83021,0.0612 l -0.11933,-0.005 v -1.6315 h 0.34895 c 0.0351,-0.003 0.0697,-0.005 0.10579,-0.005 z m -1.78517,-1.92395 c -0.21308,0.001 -0.42366,0.005 -0.63403,0.015 -0.0702,1.28706 -0.01,2.60581 -0.0351,3.91644 v 0.005 c 0.0151,1.30085 -0.0301,2.60867 0.0301,3.88941 0.13086,0.0451 0.28178,0.0687 0.46327,0.0612 0.20205,-0.01 0.42064,-0.0351 0.63403,-0.01 0.20806,-0.0451 0.4417,0.015 0.62545,0.0201 0.0958,0.002 0.17047,-0.01 0.20205,-0.0301 0.0301,-0.0201 0.0451,-0.0301 0.0451,-0.12233 v -0.003 -2.19775 l 0.14791,0.0251 c 0.0892,0.015 0.22762,-0.005 0.36951,-0.0251 0.14138,-0.0201 0.2948,-0.0451 0.43368,0.0451 l 0.0351,0.0251 0.0151,0.0401 c 0.25169,0.72408 0.4031,1.48355 0.69655,2.14661 0.66357,-0.002 1.32989,0.0612 1.95323,-0.0451 0.01,-0.015 0.0251,-0.0251 0.0251,-0.0451 0.001,-0.0301 -0.01,-0.0812 -0.0301,-0.14088 -0.0451,-0.11281 -0.12535,-0.24468 -0.13788,-0.40511 -0.24266,-0.7867 -0.48432,-1.57284 -0.72503,-2.35984 0.51114,-0.55176 1.00234,-1.33149 1.0065,-2.11387 0.01,-1.39014 -0.13387,-2.62988 -0.6397,-2.62993 -0.35346,-5e-5 -1.0994,-0.015 -2.03144,-0.015 -0.16545,-0.0201 -0.33291,-0.0251 -0.50037,-0.015 l -0.003,0.001 h -0.003 c -0.64771,-0.001 -1.29814,-0.0301 -1.93758,-0.0301 z" />
    </g>
  </g>
</svg>
