<?xml version="1.0" encoding="UTF-8" standalone="no"?>
<svg
   xmlns:dc="http://purl.org/dc/elements/1.1/"
   xmlns:cc="http://creativecommons.org/ns#"
   xmlns:rdf="http://www.w3.org/1999/02/22-rdf-syntax-ns#"
   xmlns:svg="http://www.w3.org/2000/svg"
   xmlns="http://www.w3.org/2000/svg"
   xmlns:sodipodi="http://sodipodi.sourceforge.net/DTD/sodipodi-0.dtd"
   xmlns:inkscape="http://www.inkscape.org/namespaces/inkscape"
   sodipodi:docname="navbar-logo.svg"
   inkscape:version="1.0 (4035a4fb49, 2020-05-01)"
   id="svg1786"
   version="1.1"
   viewBox="0 0 105.83333 158.75"
   height="600"
   width="400">
  <defs
     id="defs1780" />
  <sodipodi:namedview
     units="px"
     fit-margin-bottom="0"
     fit-margin-right="0"
     fit-margin-left="0"
     fit-margin-top="0"
     inkscape:snap-global="false"
     inkscape:document-rotation="0"
     inkscape:window-maximized="1"
     inkscape:window-y="-8"
     inkscape:window-x="-8"
     inkscape:window-height="1017"
     inkscape:window-width="1920"
     showgrid="false"
     inkscape:current-layer="layer1"
     inkscape:document-units="mm"
     inkscape:cy="246.91768"
     inkscape:cx="545.55808"
     inkscape:zoom="0.35781746"
     inkscape:pageshadow="2"
     inkscape:pageopacity="0.0"
     borderopacity="1.0"
     bordercolor="#666666"
     pagecolor="#ffffff"
     id="base" />
  <metadata
     id="metadata1783">
    <rdf:RDF>
      <cc:Work
         rdf:about="">
        <dc:format>image/svg+xml</dc:format>
        <dc:type
           rdf:resource="http://purl.org/dc/dcmitype/StillImage" />
        <dc:title></dc:title>
      </cc:Work>
    </rdf:RDF>
  </metadata>
  <g
     transform="translate(-61.488369,-51.754445)"
     id="layer1"
     inkscape:groupmode="layer"
     inkscape:label="Livello 1">
    <path
       sodipodi:nodetypes="ccscccscc"
       id="path1037"
       d="m 146.23893,64.825701 c 0.0488,9.791349 0.56979,19.818749 0,29.300779 l 0.13086,0.22657 c 3.24219,5.61653 6.48437,11.23307 9.72656,16.84961 l 1.82032,3.15234 V 85.05422 l -0.13086,-0.22656 c -3.24219,-5.61654 -6.48438,-11.23307 -9.72657,-16.849609 z"
       style="color:#000000;font-style:normal;font-variant:normal;font-weight:normal;font-stretch:normal;font-size:medium;line-height:normal;font-family:sans-serif;font-variant-ligatures:normal;font-variant-position:normal;font-variant-caps:normal;font-variant-numeric:normal;font-variant-alternates:normal;font-variant-east-asian:normal;font-feature-settings:normal;font-variation-settings:normal;text-indent:0;text-align:start;text-decoration:none;text-decoration-line:none;text-decoration-style:solid;text-decoration-color:#000000;letter-spacing:normal;word-spacing:normal;text-transform:none;writing-mode:lr-tb;direction:ltr;text-orientation:mixed;dominant-baseline:auto;baseline-shift:baseline;text-anchor:start;white-space:normal;shape-padding:0;shape-margin:0;inline-size:0;clip-rule:nonzero;display:inline;overflow:visible;visibility:visible;isolation:auto;mix-blend-mode:normal;color-interpolation:sRGB;color-interpolation-filters:linearRGB;solid-color:#000000;solid-opacity:1;vector-effect:none;fill:#4eef4e;fill-opacity:1;fill-rule:nonzero;stroke:none;stroke-width:1.95064;stroke-linecap:butt;stroke-linejoin:miter;stroke-miterlimit:4;stroke-dasharray:none;stroke-dashoffset:0;stroke-opacity:1;color-rendering:auto;image-rendering:auto;shape-rendering:auto;text-rendering:auto;enable-background:accumulate;stop-color:#000000" />
    <path
       sodipodi:nodetypes="csscsccsccsccccscccccccscc"
       id="path1043"
       d="m 146.17578,104.8218 v 3.64062 c 0,9.77539 0,19.55078 0,29.32617 v 0.004 0.004 c 0,0.18533 0.001,0.0983 0.0117,0.0898 0.0107,-0.008 -0.0856,0.0463 -0.28321,0.0508 -14.48279,1.08837 -30.10268,0.0391 -44.94102,0.0391 h -0.0254 -0.0234 c -0.66429,0.0345 -1.342825,0.28394 -1.757805,0.8086 -0.41498,0.52466 -0.50782,1.14662 -0.50782,1.76562 0.53852,12.1164 0.0959,26.34985 0.002,38.46628 -8.24123,0.12552 -17.918313,0.81731 -25.530993,0 l 0.84375,1.46094 c 3.52148,6.11133 8.68522,11.53563 10.56445,18.33398 l 0.28125,0.48829 h 25.456778 l 0.002,-0.97266 c -0.0643,-12.67102 -0.50622,-27.64823 0.0566,-40.00534 14.01579,0.76436 30.79907,0.58164 46.55234,-0.0449 h 0.97461 c 0.14616,-10.63834 0.20059,-21.55189 0,-33.23047 l -0.13086,-0.22657 c -3.29943,-5.71262 -6.99304,-11.06047 -9.72461,-16.8457 z"
       style="color:#000000;font-style:normal;font-variant:normal;font-weight:normal;font-stretch:normal;font-size:medium;line-height:normal;font-family:sans-serif;font-variant-ligatures:normal;font-variant-position:normal;font-variant-caps:normal;font-variant-numeric:normal;font-variant-alternates:normal;font-variant-east-asian:normal;font-feature-settings:normal;font-variation-settings:normal;text-indent:0;text-align:start;text-decoration:none;text-decoration-line:none;text-decoration-style:solid;text-decoration-color:#000000;letter-spacing:normal;word-spacing:normal;text-transform:none;writing-mode:lr-tb;direction:ltr;text-orientation:mixed;dominant-baseline:auto;baseline-shift:baseline;text-anchor:start;white-space:normal;shape-padding:0;shape-margin:0;inline-size:0;clip-rule:nonzero;display:inline;overflow:visible;visibility:visible;isolation:auto;mix-blend-mode:normal;color-interpolation:sRGB;color-interpolation-filters:linearRGB;solid-color:#000000;solid-opacity:1;vector-effect:none;fill:#4eef4e;fill-opacity:1;fill-rule:nonzero;stroke:none;stroke-width:1.95064;stroke-linecap:butt;stroke-linejoin:miter;stroke-miterlimit:4;stroke-dasharray:none;stroke-dashoffset:0;stroke-opacity:1;color-rendering:auto;image-rendering:auto;shape-rendering:auto;text-rendering:auto;enable-background:accumulate;stop-color:#000000" />
    <path
       sodipodi:nodetypes="cccccccccccccsccsccc"
       id="path1045"
       d="m 148.89018,113.35509 c 2.57197,4.50691 4.66613,8.22909 7.2381,12.73599 l -0.3454,30.10349 c -15.05715,-0.0906 -31.47073,-0.64103 -46.52771,-0.73253 l -1.16203,0.54758 -0.37871,1.20369 c -0.10575,12.62895 0.1093,27.0513 0.002,39.68052 l -21.926668,0.2202 c -3.12354,-5.48355 -4.90833,-10.42174 -8.03187,-15.90529 l 23.104678,0.16162 0.007,-0.97458 c 0.0858,-11.6867 0.2707,-26.14934 0.35659,-38.59035 0.002,-0.52061 1.06065,-1.26043 1.36804,-1.27569 14.85292,0.0926 29.25662,-0.0331 44.06872,0.0706 l 0.01,7e-5 0.0118,-0.002 c 0.46804,-0.007 0.98989,-0.0989 1.45329,-0.45667 0.46341,-0.35774 0.19487,-1.136 0.19463,-1.77212 0.0597,-8.55903 -0.1492,-15.71645 -0.0895,-24.27548 z"
       style="color:#000000;font-style:normal;font-variant:normal;font-weight:normal;font-stretch:normal;font-size:medium;line-height:normal;font-family:sans-serif;font-variant-ligatures:normal;font-variant-position:normal;font-variant-caps:normal;font-variant-numeric:normal;font-variant-alternates:normal;font-variant-east-asian:normal;font-feature-settings:normal;font-variation-settings:normal;text-indent:0;text-align:start;text-decoration:none;text-decoration-line:none;text-decoration-style:solid;text-decoration-color:#000000;letter-spacing:normal;word-spacing:normal;text-transform:none;writing-mode:lr-tb;direction:ltr;text-orientation:mixed;dominant-baseline:auto;baseline-shift:baseline;text-anchor:start;white-space:normal;shape-padding:0;shape-margin:0;inline-size:0;clip-rule:nonzero;display:inline;overflow:visible;visibility:visible;isolation:auto;mix-blend-mode:normal;color-interpolation:sRGB;color-interpolation-filters:linearRGB;solid-color:#000000;solid-opacity:1;vector-effect:none;fill:#4eef4e;fill-opacity:1;fill-rule:nonzero;stroke:none;stroke-width:1.95517;stroke-linecap:butt;stroke-linejoin:miter;stroke-miterlimit:4;stroke-dasharray:none;stroke-dashoffset:0;stroke-opacity:1;color-rendering:auto;image-rendering:auto;shape-rendering:auto;text-rendering:auto;enable-background:accumulate;stop-color:#000000" />
    <path
       sodipodi:nodetypes="ccccc"
       id="path1041"
       d="m 148.53727,72.17399 c 2.57234,4.50772 4.47558,8.5498 7.04792,13.05752 -0.05,7.16454 0.75606,14.11506 -0.15002,21.49361 -2.57234,-4.50771 -4.56801,-8.28373 -7.14035,-12.79143 0.14244,-7.11833 -0.60211,-21.32129 0.24245,-21.7597 z"
       style="color:#000000;font-style:normal;font-variant:normal;font-weight:normal;font-stretch:normal;font-size:medium;line-height:normal;font-family:sans-serif;font-variant-ligatures:normal;font-variant-position:normal;font-variant-caps:normal;font-variant-numeric:normal;font-variant-alternates:normal;font-variant-east-asian:normal;font-feature-settings:normal;font-variation-settings:normal;text-indent:0;text-align:start;text-decoration:none;text-decoration-line:none;text-decoration-style:solid;text-decoration-color:#000000;letter-spacing:normal;word-spacing:normal;text-transform:none;writing-mode:lr-tb;direction:ltr;text-orientation:mixed;dominant-baseline:auto;baseline-shift:baseline;text-anchor:start;white-space:normal;shape-padding:0;shape-margin:0;inline-size:0;clip-rule:nonzero;display:inline;overflow:visible;visibility:visible;isolation:auto;mix-blend-mode:normal;color-interpolation:sRGB;color-interpolation-filters:linearRGB;solid-color:#000000;solid-opacity:1;vector-effect:none;fill:#4eef4e;fill-opacity:1;fill-rule:nonzero;stroke:none;stroke-width:1.95517;stroke-linecap:butt;stroke-linejoin:miter;stroke-miterlimit:4;stroke-dasharray:none;stroke-dashoffset:0;stroke-opacity:1;color-rendering:auto;image-rendering:auto;shape-rendering:auto;text-rendering:auto;enable-background:accumulate;stop-color:#000000" />
    <path
       sodipodi:nodetypes="ccccccccccccccccccccccccccccscccscccsscccccccccccscccccccccccccccccscccccccccccccccccccccccccccccccscccccccccccccccccccccccccccccscccccccccscsscccccccccccccccccccccccccccccccccccccccscccccccccccccccccccccsccssccccccccccccccccccccccccscccsccccccccccccccccccsccccccccccccccccccccsscccccccccccscccscccsscccccccccccscccccccccccccccccscccccccccccccccccccccccccccccccsccccccccccccccccccccc"
       d="m 123.34593,133.83448 c -0.0401,0.004 -0.0602,0.01 -0.0802,0.0201 l 0.20057,-0.012 c -0.0401,-0.006 -0.0602,-0.006 -0.10029,-0.006 z m 7.97736,-7.31957 c -0.012,-0.0401 -0.0201,-0.0602 -0.0401,-0.0802 l 0.0401,0.18052 z m 9.4879,4.28689 c 0,0.012 0.004,0.0201 0.012,0.0401 l -0.012,-0.12034 c 0,0.0401 0.004,0.0602 0.012,0.0802 z M 92.219049,105.53204 c 0.01203,0.0401 0.01203,0.0802 0.02006,0.12035 l -0.01203,-0.20058 v 0.0802 z m 7.893891,28.04093 c 0,0 -0.012,-2.1e-4 -0.012,0 l 0.0602,0.004 c -0.012,0 -0.0401,0 -0.0602,-0.004 z m 16.40776,-4.51172 c 0.004,0.0401 0.012,0.0802 0.0201,0.12035 l -0.0201,-0.20058 z m -10.78202,-7.38635 c -0.0401,0 -0.0602,-4e-4 -0.0802,0 l 0.18052,0.0201 c -0.0401,-0.01 -0.0602,-0.012 -0.0802,-0.0201 z m 9.10103,-19.65866 c -0.16046,-0.004 -0.34092,-0.004 -0.52142,0 h -0.0201 c -0.8122,0.0401 -1.69461,0.12035 -2.55496,0.0401 v 0 c -5.35962,0.0802 -10.75294,-0.12034 -16.031748,0.10029 -0.272742,5.50003 -0.04012,11.11735 -0.120345,16.70479 v 0.012 c 0.06017,4.84663 -0.120345,9.72534 0.100288,14.48895 0.52344,0.18052 1.131081,0.27074 1.857062,0.24065 0.818245,-0.0401 1.706672,-0.1404 2.571033,-0.0401 5.41616,-0.0602 10.86624,0.12035 16.2038,-0.10029 0.18052,-0.52342 0.27475,-1.13108 0.24468,-1.85706 -0.0401,-0.81022 -0.1404,-1.69062 -0.0401,-2.54736 -0.18052,-0.83026 0.0602,-1.7568 0.0802,-2.48759 0.004,-0.38304 -0.0401,-0.68186 -0.12035,-0.8082 -0.0802,-0.12034 -0.12034,-0.18052 -0.49335,-0.18052 h -12.65491 v -0.49534 c -0.012,-0.76609 -0.16046,-1.6826 0.0602,-2.48057 0.12034,-0.3991 0.39106,-0.80822 0.84029,-0.98069 0.42515,-0.16046 0.91851,-0.12034 1.51414,0.0602 2.22006,-0.10029 4.42408,0.1404 6.44238,-0.16046 0.18052,-2.40936 0.16046,-4.93587 0.0201,-7.35847 -0.52342,-0.18052 -1.12908,-0.27074 -1.85305,-0.24067 -0.83427,0.0401 -1.74276,0.1404 -2.62336,0.0401 l -0.0401,-0.004 -0.0401,-0.012 c -0.18052,-0.0602 -0.57357,-0.0602 -1.01477,-0.0201 -0.4392,0.0401 -0.93255,0.10028 -1.40784,0.12034 -0.47329,0.0201 -0.94458,0.012 -1.36774,-0.25671 -0.21258,-0.14041 -0.39507,-0.35697 -0.48132,-0.61767 -0.0802,-0.26073 -0.0802,-0.54751 -0.0401,-0.85634 -0.12034,-0.52946 -0.20057,-1.01479 -0.0802,-1.41187 0.1404,-0.46126 0.49335,-0.80218 0.88642,-0.97064 0.78615,-0.33693 1.72069,-0.22262 2.64562,-0.1404 3.17226,-0.12035 6.36376,0.16046 9.36595,-0.18052 0.18052,-2.40576 0.16046,-4.92684 0.0201,-7.34644 -0.39107,-0.1404 -0.83227,-0.22663 -1.33164,-0.24669 z m 3.64735,-0.16046 c -0.004,0.10029 -0.004,0.21658 -0.012,0.32287 l 0.0602,0.0602 -0.0401,-0.37504 z m 10.13306,8.19696 c 1.00474,-0.0201 3.15099,-0.27074 4.0677,0.27475 1.04684,0.6217 0.8082,2.24453 0.58359,3.67423 v 0.0401 l -0.012,0.0401 c -0.45324,1.29152 -1.52617,1.98343 -2.65304,2.29167 -1.12707,0.30883 -2.3436,0.2928 -3.32086,0.24466 l -0.47731,-0.0201 v -6.52601 h 1.3958 c 0.1404,-0.012 0.27876,-0.0201 0.42315,-0.0201 z m -7.14068,-7.6958 c -0.85233,0.004 -1.69464,0.0201 -2.53613,0.0602 -0.28077,5.14824 -0.0401,10.42324 -0.1404,15.66575 v 0.0201 c 0.0602,5.2034 -0.12035,10.43467 0.12034,15.55766 0.52344,0.18052 1.12709,0.27475 1.85307,0.24466 0.8082,-0.0401 1.68258,-0.1404 2.53611,-0.0401 0.83227,-0.18052 1.76682,0.0602 2.50183,0.0802 0.38304,0.01 0.68186,-0.0401 0.8082,-0.12034 0.12034,-0.0802 0.18052,-0.12035 0.18052,-0.48933 v -0.012 -8.791 l 0.59161,0.10029 c 0.35698,0.0602 0.91049,-0.0201 1.47804,-0.10029 0.56554,-0.0802 1.17922,-0.18052 1.73473,0.18052 l 0.1404,0.10029 0.0602,0.16046 c 1.00677,2.8963 1.61241,5.93421 2.78621,8.58643 2.65425,-0.006 5.31953,0.24468 7.81291,-0.18052 0.0401,-0.0602 0.10029,-0.10028 0.10029,-0.18051 0.004,-0.12035 -0.0401,-0.3249 -0.12034,-0.56354 -0.18052,-0.45123 -0.50138,-0.97868 -0.55153,-1.62042 -0.97064,-3.14681 -1.93727,-6.29138 -2.90011,-9.43936 2.04458,-2.20703 4.00935,-5.32595 4.026,-8.45548 0.0401,-5.56058 -0.53547,-10.51952 -2.55879,-10.51972 -1.41385,-2e-4 -4.39759,-0.0602 -8.12577,-0.0602 -0.6618,-0.0802 -1.33164,-0.10029 -2.00146,-0.0602 l -0.012,0.004 h -0.012 c -2.59086,-0.004 -5.19256,-0.12034 -7.75033,-0.12034 z m -50.565973,40.39409 v 5.00567 l -0.02006,-0.006 c 0.04012,7.64746 -0.08023,17.8485 0.252685,24.97695 0.52344,0.18052 1.131081,0.27074 1.857062,0.24065 0.806211,-0.0401 1.680597,-0.12034 2.533923,-0.0401 0.832265,-0.18051 1.764818,0.0602 2.500426,0.0602 0.383038,0.01 0.681855,-0.0401 0.808197,-0.12035 0.120345,-0.0802 0.180517,-0.12034 0.180517,-0.48934 v -0.01 -9.32525 h 6.341496 v 0.50138 c 0.04012,2.98353 0.04012,6.46523 0.16046,9.17143 0.525446,0.18051 1.133088,0.27073 1.861074,0.24065 0.808217,-0.0401 1.682603,-0.12035 2.537333,-0.0401 0.832265,-0.18052 1.766824,0.0602 2.502031,0.0602 0.383038,0.01 0.679848,-0.0401 0.808196,-0.12034 0.120345,-0.0802 0.180518,-0.12035 0.180518,-0.48934 v -0.01 -0.01 c 0.01203,-7.73208 0.04012,-21.85362 0.04012,-29.61841 0,-3.31745 -22.530276,-3.73098 -22.530276,-0.006 z m 14.113913,6.14518 c 0.880403,1.86107 0.469265,4.63143 0.475282,6.21114 h -6.730551 c -0.403095,-2.58084 -0.585598,-4.57528 1.038837,-6.4542 1.935267,-0.49737 3.760659,-0.0401 5.214626,0.24265 z m 4.894548,24.03657 c -0.04012,0.01 -0.08023,0.012 -0.100287,0.0201 l 0.200575,-0.012 c -0.04012,-0.004 -0.06017,0 -0.08023,-0.004 z m -14.384448,0 c -0.04012,0.01 -0.06017,0.012 -0.100287,0.0201 l 0.200574,-0.012 c -0.04012,-0.004 -0.06017,0 -0.08023,-0.004 z m 5.290644,-63.03439 c 1.00474,-0.0201 3.150991,-0.27073 4.067699,0.27274 1.04684,0.62371 0.808196,2.24474 0.583592,3.67443 v 0.0401 l -0.01203,0.0401 c -0.453239,1.29153 -1.526175,1.98341 -2.653044,2.29145 -1.127071,0.30885 -2.343597,0.2928 -3.320858,0.24466 l -0.477308,-0.02 v -6.52601 h 1.3958 c 0.140403,-0.012 0.278779,-0.0201 0.423173,-0.0201 z m -7.140687,-7.696 c -0.852322,0.006 -1.696642,0.0201 -2.536128,0.0602 -0.280765,5.14823 -0.04012,10.42323 -0.140403,15.66574 v 0.02 c 0.06017,5.2034 -0.120345,10.43467 0.120345,15.55765 0.52344,0.18052 1.12709,0.27475 1.853071,0.24467 0.808197,-0.0401 1.682583,-0.14041 2.536109,-0.0401 0.832266,-0.18052 1.766824,0.0602 2.502031,0.0802 0.385044,0.01 0.681855,-0.0401 0.808197,-0.12034 0.120345,-0.0802 0.180517,-0.12035 0.180517,-0.48935 v -0.012 -8.79098 l 0.591616,0.10029 c 0.356983,0.0602 0.910489,-0.0201 1.478036,-0.10029 0.565541,-0.0802 1.17922,-0.18051 1.734732,0.18052 l 0.140403,0.10029 0.06017,0.16046 c 1.006746,2.8963 1.612381,5.93419 2.786186,8.58643 2.654247,-0.006 4.535235,0.24466 7.028642,-0.18052 0.04012,-0.0602 0.100287,-0.10029 0.100287,-0.18052 0.004,-0.12034 -0.04012,-0.32489 -0.120345,-0.56353 -0.180517,-0.45124 -0.501377,-0.97867 -0.55152,-1.62043 -0.970642,-3.14678 -1.937273,-6.29137 -2.900113,-9.43935 2.044581,-2.20703 4.009352,-5.32593 4.026,-8.45548 0.04012,-5.56055 -0.535475,-10.51949 -2.558995,-10.51969 -1.413852,-2e-4 -3.612892,-0.0602 -7.341278,-0.0602 -0.661797,-0.0802 -1.331637,-0.10029 -2.001457,-0.0602 l -0.01203,0.004 h -0.01203 c -2.590865,-0.004 -5.192562,-0.12035 -7.750333,-0.12035 z M 106.0026,121.77 c -0.0401,0 -0.0602,-4e-4 -0.0802,0 l 0.18052,0.02 c -0.0401,-0.01 -0.0602,-0.012 -0.10029,-0.02 z m -2.4196,-9.51197 c 0.012,0.0401 0.012,0.0802 0.0401,0.12035 l -0.012,-0.23463 c -0.004,0.0401 0,0.0802 -0.004,0.12034 z m 19.76293,-17.320459 c -0.0401,0.004 -0.0602,0.01003 -0.0802,0.02006 l 0.20057,-0.01203 c -0.0401,-0.006 -0.0602,-0.006 -0.10029,-0.006 z m 7.97736,-7.319559 c -0.012,-0.04012 -0.0201,-0.06017 -0.0401,-0.08023 l 0.0401,0.180518 z m 9.4879,4.286887 c 0,0.01203 0.004,0.02006 0.012,0.04012 l -0.012,-0.120345 c 0,0.04012 0.004,0.06017 0.012,0.08023 z m -65.309613,2.768957 c -0.04012,0.004 -0.06017,0.01003 -0.08023,0.02006 l 0.200575,-0.01203 c -0.04012,-0.004 -0.06017,-0.004 -0.100287,-0.004 z M 89.841518,78.436557 c 0,0.01203 0,0.04012 0.004,0.04012 v -0.16046 c 0,0.04012 0,0.06017 -0.004,0.100287 z M 81.421344,71.14907 c -0.04012,4.01e-4 -0.06017,-4.01e-4 -0.08023,0 l 0.16046,0.02006 c -0.04012,-0.01003 -0.06017,-0.01203 -0.08023,-0.02006 z M 93.00334,66.635152 c 0.01203,0.04012 0.01203,0.08023 0.02006,0.120345 l -0.01203,-0.200575 v 0.08023 z M 81.780915,63.149441 c -3.559703,-0.01203 -7.109397,0 -10.631612,0.120345 -0.272742,5.498821 -0.04012,11.114336 -0.140403,16.700567 v 0.02006 c 0.06017,4.846832 -0.120345,9.724332 0.100288,14.487745 0.52342,0.180517 1.131082,0.270736 1.855057,0.240649 0.804185,-0.04012 1.670548,-0.120345 2.518659,-0.04012 0.836297,-0.200575 1.778858,0.06017 2.517275,0.06017 0.385043,0.01003 0.681854,-0.04012 0.808216,-0.120345 0.120345,-0.08023 0.180517,-0.120345 0.180517,-0.493354 v -0.004 -11.069005 l 0.493354,-0.01203 c 3.406283,-0.08023 6.833045,0.100288 10.138659,-0.100287 0.180518,-0.547489 0.272742,-1.177214 0.244662,-1.923252 -0.04012,-0.822237 -0.120345,-1.712669 -0.04012,-2.579835 -0.140403,-0.804185 0.08023,-1.742755 0.04012,-2.415984 -0.01204,-0.342943 -0.100288,-0.567547 -0.16046,-0.643765 -0.06017,-0.08023 -0.180518,-0.140403 -0.609648,-0.06017 l -0.04012,0.01003 H 78.983276 v -0.513392 c 0.01203,-0.756067 -0.16046,-1.736737 0.04012,-2.586252 0.100288,-0.425159 0.340937,-0.868369 0.796182,-1.080958 0.437193,-0.202541 0.962619,-0.180518 1.596356,0.01203 3.817401,-0.06017 7.65488,0.100288 11.378633,-0.100287 0.180517,-0.523441 0.274747,-1.131082 0.242675,-1.857063 -0.04012,-0.812228 -0.140402,-1.692631 -0.04012,-2.550771 -0.180517,-0.83026 0.06017,-1.758801 0.08023,-2.489596 0.01203,-0.383037 -0.04012,-0.675837 -0.120345,-0.804184 -0.08023,-0.120345 -0.120345,-0.200575 -0.485331,-0.180518 v 0 c -3.556694,0.04012 -7.124239,0.004 -10.682738,-0.004 z m 18.332025,31.526621 c 0,0 -0.012,-2.01e-4 -0.012,0 l 0.0602,0.004 c -0.012,0 -0.0401,0 -0.0602,-0.004 z m 16.40776,-4.511711 c 0.004,0.04012 0.012,0.08023 0.0201,0.120344 l -0.0201,-0.200574 z M 105.73868,82.778 c -0.0401,0 -0.0602,-4.01e-4 -0.0802,0 l 0.18052,0.02006 c -0.0401,-0.01003 -0.0602,-0.01203 -0.0802,-0.02006 z m 9.10103,-19.658645 c -0.16046,-0.004 -0.34092,-0.004 -0.52142,0 h -0.0201 c -0.8122,0.04012 -1.69461,0.120345 -2.55496,0.04012 v 0 c -5.35962,0.08023 -10.75294,-0.120345 -16.031748,0.100288 -0.272742,5.500024 -0.04012,11.117344 -0.120345,16.704778 v 0.01204 c 0.06017,4.846631 -0.120345,9.725334 0.100288,14.488947 0.52344,0.180518 1.131081,0.270736 1.857062,0.24065 0.818245,-0.04012 1.706672,-0.140402 2.571033,-0.04012 5.41616,-0.06017 10.86624,0.120345 16.2038,-0.100287 0.18052,-0.523421 0.27475,-1.131082 0.24468,-1.857063 -0.0401,-0.810222 -0.1404,-1.690626 -0.0401,-2.547361 -0.18052,-0.83026 0.0602,-1.756795 0.0802,-2.48759 0.004,-0.383038 -0.0401,-0.681854 -0.12035,-0.808196 -0.0802,-0.120345 -0.12034,-0.180518 -0.49335,-0.180518 h -12.65491 v -0.495339 c -0.012,-0.766096 -0.16046,-1.682603 0.0602,-2.48057 0.12034,-0.399104 0.39106,-0.808217 0.84029,-0.980691 0.42515,-0.16046 0.91851,-0.120345 1.51414,0.06017 2.22006,-0.100287 4.42408,0.140403 6.44238,-0.160459 0.18052,-2.409366 0.16046,-4.935867 0.0201,-7.358471 -0.52342,-0.180517 -1.12908,-0.270736 -1.85305,-0.24067 -0.83427,0.04012 -1.74276,0.140403 -2.62336,0.04012 l -0.0401,-0.004 -0.0401,-0.01203 c -0.18052,-0.06017 -0.57357,-0.06017 -1.01477,-0.02006 -0.4392,0.04012 -0.93255,0.100287 -1.40784,0.120345 -0.47329,0.02006 -0.94458,0.01203 -1.36774,-0.256716 -0.21258,-0.140403 -0.39507,-0.356963 -0.48132,-0.61767 -0.0802,-0.260728 -0.0802,-0.54751 -0.0401,-0.856335 -0.12034,-0.529457 -0.20057,-1.014788 -0.0802,-1.411867 0.1404,-0.461262 0.49335,-0.802179 0.88642,-0.970642 0.78615,-0.336925 1.72069,-0.222618 2.64562,-0.140402 3.17226,-0.120345 6.36376,0.16046 9.36595,-0.180517 0.18052,-2.405756 0.16046,-4.926841 0.0201,-7.346436 -0.39107,-0.140403 -0.83227,-0.22663 -1.33164,-0.246687 z m 3.64735,-0.16046 c -0.004,0.100288 -0.004,0.216581 -0.012,0.322866 l 0.0602,0.06017 -0.0401,-0.375035 z m 10.13306,8.196954 c 1.00474,-0.02006 3.15099,-0.270736 4.0677,0.274748 1.04684,0.621701 0.8082,2.244533 0.58359,3.674231 v 0.04011 l -0.012,0.04012 c -0.45324,1.291522 -1.52617,1.983425 -2.65304,2.291669 -1.12707,0.308825 -2.3436,0.292799 -3.32086,0.244661 l -0.47731,-0.02006 v -6.526005 h 1.3958 c 0.1404,-0.01203 0.27876,-0.02006 0.42315,-0.02006 z m -7.14068,-7.695797 c -0.85233,0.004 -1.69464,0.02006 -2.53613,0.06017 -0.28077,5.148236 -0.0401,10.423235 -0.1404,15.665741 v 0.02006 c 0.0602,5.203394 -0.12035,10.434668 0.12034,15.557651 0.52344,0.180517 1.12709,0.274747 1.85307,0.244661 0.8082,-0.04012 1.68258,-0.140402 2.53611,-0.04012 0.83227,-0.180517 1.76682,0.06017 2.50183,0.08023 0.38304,0.01003 0.68186,-0.04012 0.8082,-0.120345 0.12034,-0.08023 0.18052,-0.120345 0.18052,-0.489322 v -0.01203 -8.790996 l 0.59161,0.100287 c 0.35698,0.06017 0.91049,-0.02006 1.47804,-0.100287 0.56554,-0.08023 1.17922,-0.180518 1.73473,0.180517 l 0.1404,0.100288 0.0602,0.16046 c 1.00677,2.896301 1.61241,5.934208 2.78621,8.58643 2.65425,-0.006 5.31953,0.244681 7.81291,-0.180518 0.0401,-0.06017 0.10029,-0.100287 0.10029,-0.180517 0.004,-0.120345 -0.0401,-0.324891 -0.12034,-0.563535 -0.18052,-0.451234 -0.50138,-0.978685 -0.55153,-1.620425 -0.97064,-3.146799 -1.93727,-6.291372 -2.90011,-9.439354 2.04458,-2.207026 4.00935,-5.325945 4.026,-8.455475 0.0401,-5.560578 -0.53547,-10.519511 -2.55879,-10.519711 -1.41385,-2.01e-4 -4.39759,-0.06017 -8.12577,-0.06017 -0.6618,-0.08023 -1.33164,-0.100287 -2.00146,-0.06017 l -0.012,0.004 h -0.012 c -2.59086,-0.004 -5.19256,-0.120345 -7.75033,-0.120345 z"
       style="display:inline;fill:#ffffff;fill-opacity:1;fill-rule:evenodd;stroke:none;stroke-width:5.50183;stroke-linecap:round;stroke-linejoin:miter;stroke-miterlimit:4;stroke-dasharray:none;stroke-dashoffset:0;stroke-opacity:1"
       id="path1004" />
  </g>
</svg>
